<?xml version="1.0" standalone="no"?>
<!DOCTYPE svg PUBLIC "-//W3C//DTD SVG 20010904//EN"
 "http://www.w3.org/TR/2001/REC-SVG-20010904/DTD/svg10.dtd">
<svg version="1.0" xmlns="http://www.w3.org/2000/svg"
 width="300.000000pt" height="300.000000pt" viewBox="0 0 300.000000 300.000000"
 preserveAspectRatio="xMidYMid meet">
<metadata>
Created by potrace 1.11, written by Peter Selinger 2001-2013
</metadata>
<g transform="translate(0.000000,300.000000) scale(0.100000,-0.100000)"
fill="#000000" stroke="none">
<path d="M1258 2925 c-223 -38 -466 -145 -643 -284 -288 -226 -483 -553 -540
-906 -19 -114 -19 -343 -1 -460 59 -376 275 -724 585 -945 91 -65 285 -165
387 -199 204 -68 472 -88 682 -52 540 92 968 459 1142 978 51 155 73 313 67
488 -9 234 -45 379 -147 590 -205 423 -602 718 -1065 791 -111 17 -363 17
-467 -1z m457 -66 c195 -29 430 -127 596 -250 356 -264 559 -666 559 -1109 0
-190 -30 -346 -100 -515 -72 -178 -158 -307 -298 -448 -264 -268 -597 -407
-972 -407 -443 0 -845 203 -1109 559 -63 85 -155 258 -189 356 -66 189 -90
383 -72 579 43 456 295 845 695 1075 265 152 569 206 890 160z"/>
<path d="M1348 2599 c-23 -12 -46 -35 -58 -59 -15 -30 -29 -42 -58 -50 -47
-13 -64 -26 -91 -70 -45 -74 -17 -174 59 -212 30 -16 66 -18 258 -18 204 0
226 2 262 20 135 69 84 283 -67 284 -27 0 -54 -2 -62 -5 -8 -2 -17 7 -22 25
-25 88 -135 131 -221 85z m132 -22 c34 -17 70 -74 70 -110 0 -24 3 -28 18 -22
9 4 29 12 43 18 69 28 159 -36 159 -114 0 -52 -23 -94 -63 -116 -28 -16 -61
-18 -254 -18 -208 0 -223 1 -250 21 -40 29 -66 86 -58 125 11 49 61 98 107
105 34 6 41 12 55 46 27 67 108 98 173 65z"/>
<path d="M1234 2145 c-8 -19 2 -45 16 -45 5 0 10 14 10 30 0 31 -16 41 -26 15z"/>
<path d="M1340 2130 c0 -21 4 -30 13 -27 6 2 12 14 12 27 0 13 -6 25 -12 28
-9 2 -13 -7 -13 -28z"/>
<path d="M1450 2130 c0 -16 5 -30 10 -30 6 0 10 14 10 30 0 17 -4 30 -10 30
-5 0 -10 -13 -10 -30z"/>
<path d="M1550 2130 c0 -20 5 -30 15 -30 10 0 15 10 15 30 0 20 -5 30 -15 30
-10 0 -15 -10 -15 -30z"/>
<path d="M1660 2130 c0 -16 5 -30 10 -30 6 0 10 14 10 30 0 17 -4 30 -10 30
-5 0 -10 -13 -10 -30z"/>
<path d="M1290 2050 c0 -16 5 -30 10 -30 6 0 10 14 10 30 0 17 -4 30 -10 30
-5 0 -10 -13 -10 -30z"/>
<path d="M1396 2073 c-12 -13 -6 -53 9 -53 9 0 15 9 15 24 0 26 -12 40 -24 29z"/>
<path d="M1500 2050 c0 -16 5 -30 10 -30 6 0 10 14 10 30 0 17 -4 30 -10 30
-5 0 -10 -13 -10 -30z"/>
<path d="M1604 2065 c-8 -19 2 -45 16 -45 5 0 10 14 10 30 0 31 -16 41 -26 15z"/>
<path d="M1885 2011 c-29 -12 -333 -335 -345 -366 -11 -29 -13 -124 -4 -149 3
-9 15 -16 26 -16 17 0 18 5 12 59 -5 44 -2 67 10 92 23 49 323 346 336 333 7
-7 -27 -49 -105 -131 -63 -67 -115 -125 -115 -129 0 -12 52 -64 64 -64 6 0 64
53 128 117 93 93 120 115 130 105 10 -10 -12 -37 -105 -130 -64 -64 -117 -122
-117 -128 0 -16 54 -64 71 -64 9 0 67 52 129 116 81 83 116 112 124 104 7 -7
-33 -54 -144 -166 -85 -85 -167 -162 -182 -170 -34 -18 -94 -20 -133 -4 l-30
12 -345 -352 -345 -352 -22 23 -22 22 295 300 c162 165 294 307 294 315 0 18
-599 622 -617 622 -28 0 -48 -62 -48 -150 0 -124 19 -154 246 -385 165 -167
189 -188 203 -176 15 12 -5 35 -172 205 -126 128 -195 207 -211 238 -27 58
-37 142 -21 183 l12 30 279 -284 279 -284 -269 -276 c-148 -152 -281 -287
-295 -300 -14 -14 -26 -29 -26 -35 0 -14 81 -96 95 -96 6 0 167 157 358 348
l346 349 49 -10 c91 -19 124 1 309 192 171 174 185 198 145 234 -38 35 -62 22
-176 -92 -61 -61 -114 -107 -119 -104 -5 3 41 56 102 117 123 123 133 147 85
185 -15 12 -31 21 -37 21 -6 0 -63 -52 -127 -115 -64 -64 -119 -112 -123 -108
-4 3 42 57 103 118 119 121 129 143 87 183 -25 24 -31 25 -62 13z"/>
<path d="M1346 1993 c-12 -13 -6 -53 9 -53 9 0 15 9 15 24 0 26 -12 40 -24 29z"/>
<path d="M1450 1970 c0 -16 5 -30 10 -30 6 0 10 14 10 30 0 17 -4 30 -10 30
-5 0 -10 -13 -10 -30z"/>
<path d="M1556 1993 c-12 -13 -6 -53 9 -53 9 0 15 9 15 24 0 26 -12 40 -24 29z"/>
<path d="M1572 1255 c2 -8 107 -122 235 -253 223 -230 232 -240 214 -256 -18
-16 -29 -7 -251 218 -213 215 -271 264 -270 224 1 -7 113 -128 250 -268 l249
-255 46 45 c25 24 45 50 45 58 0 22 -481 502 -502 502 -12 0 -18 -6 -16 -15z"/>
<path d="M623 654 c-8 -4 -13 -25 -13 -54 0 -53 14 -74 24 -37 l6 22 14 -24
c8 -14 16 -19 20 -13 4 7 17 8 35 2 34 -9 41 -5 41 26 0 38 -11 54 -36 54 -27
0 -33 -17 -7 -22 14 -2 12 -6 -9 -20 l-27 -18 2 43 c2 35 -1 42 -18 44 -11 1
-26 -1 -32 -3z m27 -34 c0 -5 -5 -10 -11 -10 -5 0 -7 5 -4 10 3 6 8 10 11 10
2 0 4 -4 4 -10z"/>
<path d="M993 654 c-8 -4 -13 -25 -13 -54 0 -53 14 -74 24 -37 l6 22 14 -24
c17 -30 22 -19 22 44 -1 43 -4 50 -21 52 -11 1 -26 -1 -32 -3z m27 -34 c0 -5
-5 -10 -11 -10 -5 0 -7 5 -4 10 3 6 8 10 11 10 2 0 4 -4 4 -10z"/>
<path d="M1204 635 c-7 -29 -8 -29 -35 -12 -17 10 -22 9 -33 -5 -11 -16 -14
-16 -29 -1 -24 24 -47 9 -47 -31 0 -39 21 -53 45 -29 15 14 17 14 29 -3 12
-15 16 -16 30 -5 9 7 16 20 16 27 0 8 5 14 10 14 6 0 10 -9 10 -20 0 -11 5
-20 10 -20 6 0 10 9 10 19 0 11 5 23 10 26 8 5 7 12 -2 23 -11 13 -10 15 5 9
12 -5 17 -1 17 13 0 30 -38 26 -46 -5z m-112 -57 c-9 -9 -12 -7 -12 12 0 19 3
21 12 12 9 -9 9 -15 0 -24z m68 11 c0 -11 -4 -18 -10 -14 -5 3 -7 12 -3 20 7
21 13 19 13 -6z"/>
<path d="M1302 651 c-9 -5 -12 -25 -9 -62 3 -44 5 -49 12 -30 l8 24 19 -24 20
-24 -5 29 c-3 16 0 37 6 47 19 31 -19 61 -51 40z m28 -31 c0 -5 -4 -10 -10
-10 -5 0 -10 5 -10 10 0 6 5 10 10 10 6 0 10 -4 10 -10z"/>
<path d="M1495 647 c-5 -11 -14 -16 -25 -12 -22 7 -43 -19 -35 -44 3 -10 1
-22 -5 -26 -5 -3 -10 -2 -10 4 0 6 -8 8 -17 4 -17 -6 -17 -5 0 14 24 27 21 43
-7 43 -27 0 -41 -27 -31 -60 5 -16 14 -19 53 -17 46 2 47 2 45 34 -2 25 0 31
12 27 9 -4 15 -19 15 -35 0 -29 23 -50 38 -34 4 4 1 10 -5 12 -7 3 -13 15 -13
28 0 13 6 26 13 28 8 4 9 8 1 14 -6 4 -13 15 -16 23 -5 12 -7 12 -13 -3z"/>
<path d="M1902 643 c-10 -18 -18 -21 -47 -16 l-35 6 0 -42 c0 -22 5 -41 10
-41 6 0 10 11 10 25 0 14 5 25 11 25 6 0 8 -9 4 -20 -8 -26 4 -48 16 -29 5 8
9 24 9 37 0 12 5 22 10 22 6 0 10 -14 10 -30 0 -30 23 -51 38 -35 4 4 1 10 -5
12 -7 3 -13 15 -13 28 0 13 6 26 13 28 8 4 9 8 1 14 -6 4 -13 15 -16 23 -4 12
-7 10 -16 -7z"/>
<path d="M2007 654 c-4 -4 -7 -17 -7 -29 0 -11 -5 -26 -11 -32 -20 -20 -2 -41
40 -45 35 -3 40 -1 44 19 3 17 0 23 -14 23 -15 0 -19 7 -17 32 3 31 -17 49
-35 32z m18 -74 c3 -5 1 -10 -4 -10 -6 0 -11 5 -11 10 0 6 2 10 4 10 3 0 8 -4
11 -10z"/>
<path d="M2137 642 c-34 -37 -12 -114 28 -98 20 7 19 26 0 26 -21 0 -29 25
-16 47 6 10 11 12 11 6 0 -8 14 -13 38 -13 l37 0 -24 -19 c-27 -21 -22 -36 14
-43 20 -4 26 -1 31 18 7 29 24 32 24 4 0 -11 5 -20 10 -20 10 0 14 32 11 75
-2 15 0 17 7 6 11 -15 27 3 17 19 -11 18 -35 10 -45 -15 -10 -26 -24 -32 -36
-14 -3 6 -17 9 -30 6 -17 -3 -25 1 -29 14 -8 24 -27 24 -48 1z"/>
<path d="M767 623 c-11 -10 -8 -73 3 -73 6 0 10 18 10 40 0 41 -2 45 -13 33z"/>
<path d="M800 590 c0 -48 19 -54 21 -7 2 31 2 31 9 -8 6 -35 8 -37 15 -17 9
26 20 28 29 6 4 -10 12 -14 22 -10 11 4 14 1 12 -12 -2 -9 -8 -17 -15 -17 -6
0 -15 -3 -19 -7 -4 -5 4 -8 18 -8 14 0 29 7 32 16 10 25 7 92 -4 99 -5 3 -10
-3 -10 -14 0 -11 -4 -23 -10 -26 -5 -3 -10 3 -10 14 0 24 -16 36 -24 19 -5
-10 -7 -10 -12 0 -3 6 -17 12 -30 12 -21 0 -24 -4 -24 -40z"/>
<path d="M1540 620 c0 -5 8 -10 18 -10 14 0 12 -4 -8 -20 -28 -21 -21 -36 20
-42 27 -3 36 16 26 58 -5 17 -13 24 -31 24 -14 0 -25 -4 -25 -10z"/>
<path d="M1616 618 c-15 -32 -3 -63 24 -63 20 0 26 6 28 29 2 16 -1 33 -7 39
-8 8 -11 2 -11 -21 0 -42 -18 -41 -22 1 -3 24 -6 28 -12 15z"/>
<path d="M1684 621 c-8 -8 -4 -60 5 -65 5 -3 12 5 15 18 5 22 31 36 66 36 10
0 7 -7 -10 -20 -28 -21 -21 -36 20 -42 19 -2 26 2 28 19 6 45 -13 62 -69 60
-28 -1 -52 -4 -55 -6z"/>
<path d="M2325 610 c-10 -32 4 -62 28 -58 11 2 22 9 25 16 2 8 -2 10 -15 5
-17 -6 -17 -6 0 14 24 27 21 43 -7 43 -16 0 -27 -7 -31 -20z m35 0 c0 -5 -5
-10 -11 -10 -5 0 -7 5 -4 10 3 6 8 10 11 10 2 0 4 -4 4 -10z"/>
</g>
</svg>
